Fly_normalized_Motion_pl07
version=1
nRows=14
nColumns=43
inDegrees=yes
endheader
time		pelvis_tilt		pelvis_list		pelvis_rotation		pelvis_tx		pelvis_ty		pelvis_tz		hip_flexion_r		hip_adduction_r		hip_rotation_r		knee_angle_r		ankle_angle_r		subtalar_angle_r		mtp_angle_r		hip_flexion_l		hip_adduction_l		hip_rotation_l		knee_angle_l		ankle_angle_l		subtalar_angle_l		mtp_angle_l		lumbar_extension		lumbar_bending		lumbar_rotation		neck_flexion		neck_lateral_bending		neck_rotation		arm_flex_r		arm_add_r		arm_rot_r		elbow_flex_r		pro_sup_r		wrist_flex_r		wrist_dev_r		hand_finger_flex_r		arm_flex_l		arm_add_l		arm_rot_l		elbow_flex_l		pro_sup_l		wrist_flex_l		wrist_dev_l		hand_finger_flex_l		
0.579848		-2.498566		-9.149133		88.123220		0.007695		1.852310		1.242949		50.221619		-4.224915		-0.935782		-101.576021		-9.782563		-11.487649		2.704986		48.591646		-3.010923		-4.352526		-97.598274		-15.444000		-27.116088		2.263776		-46.729109		-3.102324		4.223338		8.842499		0.935704		-3.804659		123.738836		-15.269728		41.413162		60.983683		80.487675		-38.148992		-5.513129		50.045069		116.535049		-9.553180		21.483183		69.758792		-94.662180		-15.987743		-20.559364		-90.000210		
0.584242		-2.352506		-8.886027		88.360619		0.007252		1.848421		1.235288		50.858860		-4.100717		-1.254008		-101.103657		-9.718577		-10.648442		3.321057		49.042167		-3.012382		-4.256553		-96.640156		-15.336049		-26.357881		2.598270		-46.971161		-2.829512		4.210080		8.443048		0.871141		-3.856159		122.017719		-16.236145		41.588483		61.956254		80.879732		-38.703056		-5.318846		50.336382		114.590625		-9.856589		21.188538		70.302921		-94.488920		-16.146653		-20.412086		-90.000210		
0.588636		-2.267191		-8.524114		88.486878		0.006926		1.844744		1.227724		51.344409		-4.001077		-1.545428		-100.451488		-9.802222		-10.184881		3.684821		49.339150		-3.038924		-4.315976		-95.575793		-15.420842		-25.862582		2.807836		-47.375720		-2.654022		4.160692		8.253068		0.792506		-3.876267		120.497649		-17.229402		42.046153		62.773619		81.072679		-38.872640		-5.239654		50.583184		112.843792		-10.466666		21.298661		70.843029		-94.451743		-16.395779		-20.302451		-90.000210		
0.593030		-2.201641		-8.113757		88.617351		0.006589		1.841023		1.220045		51.749249		-3.911492		-1.797461		-99.727978		-9.984676		-9.738319		3.932303		49.529472		-3.035412		-4.396701		-94.431585		-15.586245		-25.428959		2.976120		-47.817849		-2.483829		4.114574		8.008668		0.680077		-3.884953		118.913056		-18.298668		42.497573		63.620985		81.095709		-38.955888		-5.213813		50.753844		111.007115		-11.120699		21.432816		71.435267		-94.555821		-16.639220		-20.178074		-90.000210		
0.597424		-1.933820		-8.118798		88.926022		0.005990		1.835974		1.212382		52.589778		-3.778869		-2.201760		-99.024104		-10.562123		-8.808614		7.266598		50.265213		-3.084862		-4.157182		-93.452381		-15.680621		-24.313903		5.480047		-47.734398		-2.042419		4.307334		7.677550		0.440890		-4.047546		117.277961		-19.740312		43.435096		64.895277		80.372694		-40.341932		-4.589995		51.435437		108.882282		-11.485691		21.213967		71.967426		-94.953764		-17.301828		-20.370122		-90.000210		
0.601818		-1.912852		-7.634561		89.047958		0.005609		1.831996		1.204332		52.815180		-3.738469		-2.421796		-98.171947		-10.764077		-8.418280		7.501149		50.237270		-3.029601		-4.327128		-92.158945		-15.889678		-24.100273		5.670248		-48.181573		-1.919044		4.203682		7.208605		0.460213		-4.112798		115.545760		-20.896630		43.909346		65.640590		80.283884		-40.268226		-4.677402		51.619610		106.831711		-12.257886		21.439943		72.655675		-95.193348		-17.593815		-20.263694		-90.000210		
0.606212		-1.894608		-7.243661		89.200180		0.005078		1.827652		1.196146		53.097548		-3.745279		-2.627113		-97.263301		-11.012597		-7.833825		7.692341		50.268309		-2.931865		-4.478498		-90.844953		-16.053704		-23.798448		5.859267		-48.507933		-1.757309		4.125751		6.754600		0.370963		-4.149412		113.682521		-22.154839		44.325082		66.538279		80.077865		-40.214602		-4.708137		51.780901		104.680585		-13.039429		21.667045		73.334341		-95.492518		-17.933262		-20.210808		-90.000210		
0.610606		-1.878796		-7.178264		89.457251		0.004257		1.822497		1.188017		53.698338		-3.874575		-2.828811		-96.334228		-11.147775		-6.710874		8.375534		50.640724		-2.705067		-4.487736		-89.507111		-16.060877		-23.203437		6.555452		-48.439079		-1.521732		4.031096		6.202700		0.315696		-4.278495		111.560589		-23.471735		44.516979		67.597664		79.333999		-40.331916		-4.471606		52.017547		102.303695		-13.640831		21.590018		73.963517		-96.010826		-18.391599		-20.454242		-90.000210		
0.615000		-1.850404		-6.870161		89.568997		0.003841		1.817651		1.179642		53.976022		-3.830893		-3.015854		-95.314812		-11.381738		-6.374550		8.605711		50.645071		-2.638325		-4.619897		-88.090125		-16.223958		-22.887567		6.829407		-48.661081		-1.380240		3.958686		5.753515		0.226785		-4.257724		109.656444		-24.854383		45.115488		68.535456		79.170918		-40.186498		-4.431985		52.274151		100.085843		-14.673552		22.007767		74.769464		-96.215706		-18.851213		-20.549274		-90.000210		
0.619394		-1.828108		-6.668667		89.723042		0.003357		1.812475		1.171196		54.310487		-3.827859		-3.199383		-94.241243		-11.627343		-5.917203		8.883817		50.714134		-2.517044		-4.702061		-86.608691		-16.305110		-22.479788		7.192668		-48.763493		-1.210145		3.864832		5.268961		0.091620		-4.254995		107.560217		-26.247682		45.479180		69.584664		78.914129		-40.061112		-4.289760		52.577396		97.713846		-15.672185		22.244259		75.638896		-96.394121		-19.268394		-20.707957		-90.000210		
0.623788		-1.772716		-7.032837		89.905332		0.002863		1.805915		1.163094		55.286386		-3.819986		-3.362371		-93.154182		-12.098146		-5.306128		11.373405		51.434274		-2.407060		-4.659551		-85.166530		-16.462853		-21.699280		10.334026		-48.232595		-1.002863		3.811671		4.795112		-0.041409		-4.212211		105.258647		-27.734730		45.662225		70.866403		78.568818		-40.055512		-3.411304		53.569486		95.182193		-16.554802		22.115216		76.690252		-96.854885		-20.095148		-22.509448		-90.000210		
0.628182		-1.761781		-6.700344		90.008243		0.002451		1.800892		1.154627		55.337269		-3.809995		-3.513864		-91.863845		-12.367036		-5.074157		11.464397		51.212793		-2.335525		-4.849086		-83.494665		-16.596475		-21.492697		10.508991		-48.501166		-0.849031		3.736975		4.320741		-0.161867		-4.230563		103.191893		-29.161935		46.151432		71.763456		78.532890		-39.954025		-3.423285		53.733494		92.815841		-17.742099		22.452758		77.507835		-97.081470		-20.412611		-22.435014		-90.000210		
0.632576		-1.777230		-6.412243		90.136153		0.001982		1.795245		1.145692		55.437472		-3.831606		-3.622243		-90.678148		-12.728314		-4.718570		11.631279		51.035539		-2.247822		-5.074801		-81.957849		-16.661322		-21.165605		10.822692		-48.670590		-0.690928		3.626911		3.853103		-0.398856		-4.208179		100.872032		-30.750248		46.496058		72.984691		78.441476		-39.888531		-3.366159		53.893552		90.227935		-19.023101		22.709059		78.541228		-97.344552		-20.699425		-22.445958		-90.000210		
0.636970		-1.832157		-6.274711		90.237263		0.001585		1.789420		1.136960		55.639028		-3.875548		-3.668451		-89.351137		-13.143495		-4.251808		11.994693		50.935778		-2.165531		-5.353178		-80.279350		-16.598425		-20.686356		11.465317		-48.722162		-0.597870		3.488036		3.554787		-0.644836		-4.181245		98.372863		-32.265608		46.527245		74.169986		78.258772		-39.917948		-3.100041		53.969104		87.556631		-20.254035		22.782506		79.584736		-97.618857		-20.819560		-22.716848		-90.000210		
